<?xml version="1.0" standalone="no"?>
<!DOCTYPE svg PUBLIC "-//W3C//DTD SVG 20010904//EN"
 "http://www.w3.org/TR/2001/REC-SVG-20010904/DTD/svg10.dtd">
<svg version="1.0" xmlns="http://www.w3.org/2000/svg"
 width="310.000000pt" height="310.000000pt" viewBox="0 0 310.000000 310.000000"
 preserveAspectRatio="xMidYMid meet">
<metadata>
Created by potrace 1.14, written by Peter Selinger 2001-2017
</metadata>
<g transform="translate(0.000000,310.000000) scale(0.100000,-0.100000)"
fill="#000000" stroke="none">
<path d="M1698 2993 c12 -2 32 -2 45 0 12 2 2 4 -23 4 -25 0 -35 -2 -22 -4z"/>
<path d="M1438 2963 c18 -2 45 -2 60 0 15 2 0 4 -33 4 -33 0 -45 -2 -27 -4z"/>
<path d="M1745 2800 c-13 -6 -2 -7 30 -3 28 3 52 7 54 9 9 8 -65 2 -84 -6z"/>
<path d="M1642 2783 c-23 -8 -40 -18 -37 -22 2 -5 -33 -20 -78 -36 -73 -24
-102 -38 -206 -94 -14 -8 -42 -29 -61 -48 -19 -18 -40 -33 -46 -33 -5 0 -23
-14 -40 -32 -21 -23 -24 -29 -10 -24 16 5 17 4 6 -9 -7 -8 -20 -13 -29 -10 -9
2 -23 0 -31 -6 -11 -8 -9 -9 10 -4 23 7 22 5 -10 -25 -19 -19 -36 -28 -38 -21
-2 6 -8 9 -12 6 -5 -3 -7 -12 -3 -20 3 -9 -1 -15 -10 -15 -10 0 -13 -9 -11
-27 2 -19 -6 -33 -27 -52 -16 -14 -29 -33 -29 -42 0 -10 -3 -19 -7 -21 -5 -1
-17 -28 -27 -58 -11 -30 -21 -61 -24 -67 -11 -31 19 -8 62 47 28 37 51 58 58
54 8 -5 9 -2 5 9 -3 9 -3 16 1 14 4 -1 25 13 47 32 22 18 34 30 28 27 -9 -5
-11 -2 -7 8 3 9 12 16 20 16 7 0 21 11 30 25 9 14 20 25 25 25 5 0 19 9 31 20
47 43 54 47 78 53 34 9 56 24 47 33 -4 4 -15 0 -25 -9 -10 -10 -25 -17 -32
-17 -7 0 13 18 45 41 31 22 59 38 61 36 3 -2 -7 -12 -22 -21 -36 -24 -24 -30
21 -12 26 11 35 20 31 31 -3 8 -1 15 4 15 6 0 10 -5 10 -10 0 -13 47 -2 77 18
12 7 28 12 35 9 8 -3 2 -9 -14 -16 -27 -10 -38 -31 -17 -31 12 0 51 20 59 29
3 4 21 17 40 29 l35 22 -30 0 c-59 0 -3 28 80 39 44 6 105 16 135 22 30 6 66
12 80 14 14 1 27 3 30 5 10 5 55 -2 65 -10 6 -4 22 -10 37 -14 26 -6 26 -6 12
24 -9 17 -20 30 -26 30 -7 0 -6 -5 1 -14 8 -9 8 -16 2 -20 -5 -4 -13 -1 -18 6
-4 7 -15 14 -23 15 -8 1 -33 9 -55 17 -47 18 -115 21 -115 5 0 -7 -10 -9 -25
-5 -14 4 -53 -1 -86 -9 -69 -18 -89 -13 -38 9 35 16 24 22 -30 17 -30 -3 -23
23 7 27 13 2 19 8 16 14 -4 7 -2 8 5 4 6 -4 18 0 27 8 14 15 14 16 -3 15 -10
-1 -37 -8 -61 -16z m-57 -63 c-3 -5 -10 -10 -16 -10 -5 0 -9 5 -9 10 0 6 7 10
16 10 8 0 12 -4 9 -10z m-48 -16 c-3 -3 -12 -4 -19 -1 -8 3 -5 6 6 6 11 1 17
-2 13 -5z m-111 -49 c-11 -8 -25 -15 -30 -15 -6 1 0 7 14 15 32 19 40 18 16 0z
m-46 -19 c0 -2 -7 -7 -16 -10 -8 -3 -12 -2 -9 4 6 10 25 14 25 6z m-50 -31
c-7 -9 -15 -13 -17 -11 -7 7 7 26 19 26 6 0 6 -6 -2 -15z"/>
<path d="M1950 2676 c0 -3 9 -10 20 -16 11 -6 20 -8 20 -6 0 3 -9 10 -20 16
-11 6 -20 8 -20 6z"/>
<path d="M1753 2623 c9 -2 25 -2 35 0 9 3 1 5 -18 5 -19 0 -27 -2 -17 -5z"/>
<path d="M1708 2613 c7 -3 16 -2 19 1 4 3 -2 6 -13 5 -11 0 -14 -3 -6 -6z"/>
<path d="M1745 2593 c-67 -17 -130 -47 -160 -76 -20 -19 -20 -19 10 -13 17 3
84 13 150 22 66 9 137 24 158 34 l37 18 -27 10 c-50 19 -107 21 -168 5z"/>
<path d="M2010 2550 c-29 -9 -104 -21 -310 -51 -145 -20 -190 -36 -246 -86
-11 -10 -29 -23 -40 -29 -10 -6 -30 -17 -44 -25 -14 -8 -41 -26 -61 -41 -20
-16 -40 -28 -43 -28 -9 0 -185 -98 -231 -128 -59 -39 -146 -110 -178 -145 -25
-26 -27 -31 -13 -39 23 -13 20 -31 -11 -64 -56 -58 -93 -170 -63 -189 6 -3 10
-24 10 -45 0 -42 12 -52 48 -39 16 6 22 5 22 -6 0 -14 35 -23 89 -24 40 0 40
-2 -4 -83 -5 -10 -15 -16 -22 -14 -15 6 -36 -20 -30 -36 4 -8 6 -7 6 5 1 12 9
17 28 17 25 0 25 -1 9 -19 -19 -21 -12 -51 13 -51 27 0 22 -85 -6 -114 -32
-33 -28 -67 4 -35 7 7 12 3 17 -15 3 -13 19 -34 36 -46 25 -17 28 -26 23 -50
-4 -23 -2 -30 11 -30 12 0 16 -9 16 -34 0 -26 4 -33 18 -32 9 0 18 -6 18 -14
1 -8 3 -19 4 -25 1 -5 2 -14 1 -18 -1 -5 8 -6 19 -2 28 9 47 -33 30 -65 -7
-14 -8 -20 -1 -16 6 4 17 -8 25 -29 8 -19 19 -35 25 -35 5 0 7 -9 4 -20 -3
-11 0 -20 6 -20 6 0 11 -13 11 -30 0 -22 4 -28 15 -24 11 4 15 -1 15 -17 l1
-24 14 25 c14 24 14 24 9 -15 -3 -22 -11 -50 -17 -63 -9 -18 -7 -25 9 -38 13
-11 15 -17 7 -20 -9 -4 -9 -11 3 -29 8 -13 14 -30 12 -39 -2 -8 1 -14 5 -13 4
1 15 -12 24 -30 8 -18 24 -35 34 -38 10 -4 19 -11 19 -16 0 -6 4 -7 10 -4 5 3
7 0 4 -8 -3 -8 2 -17 10 -20 11 -4 13 -15 9 -42 -5 -30 -1 -39 21 -60 27 -25
66 -34 66 -15 0 5 -7 7 -15 4 -8 -4 -15 -1 -15 5 0 6 11 11 25 11 14 0 25 5
25 10 0 6 15 10 33 10 17 0 51 11 75 25 24 14 58 26 75 29 38 4 87 26 87 38 0
5 9 4 20 -2 11 -6 20 -16 20 -23 0 -7 5 -19 10 -27 9 -13 11 -13 20 0 8 12 10
11 10 -8 0 -15 9 -26 26 -32 22 -9 25 -14 19 -38 -3 -15 -9 -45 -13 -67 -5
-26 -14 -43 -29 -50 -21 -11 -21 -12 13 -24 23 -8 34 -19 34 -32 0 -11 7 -22
15 -25 20 -8 19 -31 -2 -43 -15 -9 -13 -10 14 -11 26 0 30 -3 26 -20 -4 -15 2
-22 23 -30 40 -15 135 -9 144 10 36 74 40 91 25 106 -18 19 -19 28 -2 55 10
17 9 22 -5 30 -28 16 -10 42 23 35 28 -5 29 -4 29 32 l1 37 15 -29 c13 -24 14
-33 3 -52 -7 -13 -9 -27 -6 -31 4 -3 7 -1 7 5 0 23 18 12 25 -15 l7 -28 13 25
c7 13 11 30 8 37 -3 7 0 13 6 13 6 0 11 7 11 15 0 19 42 37 51 23 4 -6 9 -6
13 1 9 15 26 4 26 -15 0 -9 10 -24 23 -34 19 -16 22 -29 24 -102 1 -45 5 -93
9 -106 l6 -22 269 0 c208 0 269 3 269 13 0 8 4 7 10 -3 7 -11 10 -3 10 30 0
33 3 41 10 30 5 -8 10 -27 10 -42 0 -16 5 -28 11 -28 12 0 9 55 -8 184 -5 44
-4 49 12 42 15 -5 17 -2 12 24 -8 38 10 40 19 3 11 -51 26 -83 40 -83 20 0 18
64 -2 80 -35 30 -37 50 -8 81 33 35 20 39 -17 5 -26 -24 -62 -46 -75 -46 -8 0
31 36 84 77 30 24 44 63 22 63 -5 0 -10 -6 -10 -12 0 -7 -27 -40 -60 -72 -33
-33 -60 -63 -60 -67 0 -18 -37 -17 -103 5 -88 29 -162 63 -178 82 -6 8 -15 14
-20 14 -15 0 -50 31 -129 113 -41 42 -80 77 -86 77 -6 0 -21 11 -34 25 -13 14
-26 25 -29 25 -11 0 -11 -74 0 -81 17 -10 1 -29 -17 -22 -14 5 -16 -2 -10 -58
5 -53 4 -60 -5 -39 -12 25 -12 24 -20 -15 -5 -30 -3 -44 9 -57 14 -16 14 -18
-1 -18 -10 0 -17 4 -17 9 0 5 -12 11 -27 13 -20 2 -27 8 -25 20 1 9 -2 19 -8
23 -5 3 -10 16 -10 28 0 16 -3 18 -11 10 -9 -9 -18 -3 -35 23 -13 19 -24 41
-24 49 0 8 -6 15 -14 15 -8 0 -17 6 -20 13 -5 9 -7 9 -12 0 -3 -8 -15 -3 -35
16 -43 42 -35 52 19 25 26 -13 50 -24 55 -24 15 0 6 41 -10 47 -26 10 -45 31
-38 43 3 5 -3 10 -14 10 -12 0 -21 5 -21 11 0 6 9 8 20 4 16 -5 20 -2 20 14 0
25 17 27 42 4 22 -20 25 1 3 23 -8 9 -15 27 -15 42 0 19 3 23 9 13 7 -10 10
-10 16 -1 4 7 1 17 -6 22 -12 8 -11 9 1 6 8 -3 17 -15 21 -29 6 -19 7 -16 8
17 1 28 -5 46 -17 57 -10 9 -19 31 -20 49 -2 18 -9 36 -17 41 -16 9 -21 37 -6
37 5 0 11 -6 14 -12 2 -7 8 -10 12 -6 4 4 4 15 -1 25 -13 31 -12 55 2 49 10
-4 14 5 14 34 0 21 5 42 11 46 6 3 9 15 6 25 -3 10 -1 19 3 21 15 6 -2 58 -19
58 -14 0 -14 -2 -1 -10 13 -8 12 -10 -2 -10 -11 0 -18 -8 -18 -20 0 -11 -4
-20 -8 -20 -11 0 -76 -153 -91 -213 -13 -56 -37 -97 -56 -97 -7 0 -15 -13 -17
-30 -5 -31 3 -53 18 -50 5 1 10 -3 12 -8 2 -7 -10 -7 -32 0 -35 11 -46 30 -26
43 12 8 13 25 1 25 -5 0 -11 -10 -14 -23 -4 -12 -17 -37 -31 -56 l-25 -34 6
35 c5 32 2 37 -27 52 -34 17 -50 14 -50 -10 0 -21 -21 -17 -27 6 -3 11 -8 20
-12 20 -16 0 -51 -52 -52 -78 -1 -25 -1 -26 -7 -4 -4 13 -11 23 -17 22 -14 -1
-7 -79 10 -103 14 -20 15 -20 28 13 l14 33 5 -31 c3 -25 0 -32 -16 -36 -31 -8
-83 -7 -70 2 18 11 6 112 -12 105 -20 -7 -17 4 5 29 11 11 27 18 35 15 23 -9
29 42 11 86 -8 20 -22 37 -30 37 -8 0 -15 6 -15 14 0 8 -7 16 -15 20 -8 3 -15
16 -15 30 0 14 -4 27 -9 30 -5 3 -12 23 -16 43 -7 43 -52 97 -69 84 -31 -24
-41 -19 -42 22 0 22 -6 43 -12 45 -7 2 -10 8 -6 13 3 5 -2 12 -10 15 -9 3 -16
14 -16 24 0 21 -15 28 -53 24 -24 -2 -29 2 -34 27 -6 34 -23 49 -23 22 0 -14
-3 -13 -15 7 -8 14 -17 32 -21 40 -4 8 -15 21 -25 28 -10 6 -20 27 -24 45 -4
17 -13 46 -20 62 -13 29 -21 84 -34 225 -7 72 3 215 20 298 11 56 5 48 224
277 89 93 169 129 360 161 294 50 461 -25 493 -219 15 -97 38 -138 92 -164 45
-23 101 -33 70 -13 -12 8 -9 10 12 10 35 0 43 27 35 120 -11 129 -73 213 -210
281 -169 86 -245 108 -307 89z m-1053 -632 c-3 -8 -6 -5 -6 6 -1 11 2 17 5 13
3 -3 4 -12 1 -19z m-150 -80 c-3 -8 -6 -5 -6 6 -1 11 2 17 5 13 3 -3 4 -12 1
-19z m133 2 c0 -5 -4 -10 -10 -10 -5 0 -10 5 -10 10 0 6 5 10 10 10 6 0 10 -4
10 -10z m0 -132 c0 -10 -2 -18 -5 -18 -7 0 -35 57 -35 72 1 19 40 -34 40 -54z
m-55 -59 c10 -30 0 -33 -13 -4 -6 14 -7 25 -2 25 5 0 12 -9 15 -21z m72 -141
c-3 -8 -6 -5 -6 6 -1 11 2 17 5 13 3 -3 4 -12 1 -19z m580 -650 c-3 -8 -6 -5
-6 6 -1 11 2 17 5 13 3 -3 4 -12 1 -19z m340 -135 c-3 -10 -5 -4 -5 12 0 17 2
24 5 18 2 -7 2 -21 0 -30z m125 -11 c3 -9 1 -26 -3 -37 -6 -15 -8 -11 -8 18
-1 40 4 48 11 19z m-437 -2 c3 -5 1 -10 -4 -10 -6 0 -11 5 -11 10 0 6 2 10 4
10 3 0 8 -4 11 -10z m-51 -43 c-23 -45 -27 -47 -19 -7 9 44 14 52 26 45 5 -4
2 -20 -7 -38z m166 39 c0 -3 -4 -8 -10 -11 -5 -3 -10 -1 -10 4 0 6 5 11 10 11
6 0 10 -2 10 -4z m-243 -28 c-3 -8 -6 -5 -6 6 -1 11 2 17 5 13 3 -3 4 -12 1
-19z m200 0 c-3 -8 -6 -5 -6 6 -1 11 2 17 5 13 3 -3 4 -12 1 -19z m438 1 c10
-15 -1 -23 -20 -15 -9 3 -13 10 -10 16 8 13 22 13 30 -1z m-602 -37 c-3 -12
-9 -22 -14 -22 -5 0 -9 -14 -9 -31 0 -17 -4 -28 -10 -24 -6 4 -10 -12 -10 -40
0 -31 -4 -44 -11 -39 -21 13 -1 119 28 153 30 34 35 35 26 3z m111 5 c8 -12 6
-21 -7 -35 -9 -10 -17 -24 -17 -30 0 -19 19 -14 32 8 7 11 19 20 26 20 7 0 17
11 22 25 10 26 24 32 35 15 3 -5 2 -10 -3 -10 -5 0 -15 -14 -22 -30 -7 -17
-24 -40 -38 -50 -13 -11 -20 -20 -13 -20 6 0 11 -6 11 -14 0 -8 8 -13 17 -12
12 1 19 -7 20 -24 1 -14 0 -19 -3 -12 -8 17 -24 15 -24 -3 0 -8 -4 -15 -10
-15 -5 0 -10 5 -10 10 0 13 -22 1 -65 -33 l-29 -24 47 7 c47 7 66 -3 26 -13
-13 -3 -18 -10 -14 -17 5 -9 -8 -10 -51 -5 -94 12 -107 25 -80 74 8 14 12 31
9 38 -3 7 -1 19 5 26 6 6 14 28 19 47 6 21 15 34 24 33 8 -2 25 13 38 33 25
36 38 39 55 11z m153 -83 c-3 -3 -12 -4 -19 -1 -8 3 -5 6 6 6 11 1 17 -2 13
-5z m30 -46 c-3 -8 -6 -5 -6 6 -1 11 2 17 5 13 3 -3 4 -12 1 -19z m-123 -77
c3 -5 0 -11 -8 -14 -15 -6 -26 1 -26 15 0 11 27 10 34 -1z m521 -51 c3 -5 -3
-10 -14 -10 -12 0 -21 5 -21 10 0 6 6 10 14 10 8 0 18 -4 21 -10z m-747 -14
c-7 -8 -15 -12 -17 -11 -5 6 10 25 20 25 5 0 4 -6 -3 -14z"/>
<path d="M1546 624 c-5 -12 -2 -15 10 -10 8 3 18 6 20 6 3 0 2 5 -1 10 -9 15
-22 12 -29 -6z"/>
<path d="M1523 553 c-5 -10 -7 -31 -3 -48 6 -29 6 -28 13 14 8 48 4 63 -10 34z"/>
<path d="M1448 2517 c-7 -7 -35 -24 -61 -37 -27 -14 -44 -26 -39 -28 6 -2 24
4 41 12 16 9 41 16 54 16 13 0 32 8 41 19 15 17 15 19 1 25 -22 8 -22 8 -37
-7z"/>
<path d="M891 2484 c0 -11 3 -14 6 -6 3 7 2 16 -1 19 -3 4 -6 -2 -5 -13z"/>
<path d="M1416 2462 c-14 -3 -16 -6 -6 -12 11 -7 11 -12 -1 -26 -13 -16 -12
-16 7 -6 32 17 47 39 32 44 -7 2 -22 2 -32 0z"/>
<path d="M1364 2425 c-10 -8 -14 -15 -8 -15 6 0 17 7 24 15 16 19 9 19 -16 0z"/>
<path d="M1320 2369 c0 -5 5 -7 10 -4 6 3 10 8 10 11 0 2 -4 4 -10 4 -5 0 -10
-5 -10 -11z"/>
<path d="M1710 2105 c-35 -13 -35 -13 -7 -14 25 -1 27 -3 14 -15 -8 -8 -41
-22 -74 -30 -107 -28 -178 -76 -92 -62 24 4 48 11 54 17 14 14 45 11 51 -6 7
-17 74 -21 74 -5 0 6 7 10 15 10 8 0 15 -4 15 -10 0 -5 9 -10 20 -10 18 0 19
3 10 20 -9 17 -8 20 7 20 10 0 27 -7 37 -15 30 -23 39 -18 33 15 -6 25 -3 30
13 30 23 0 24 6 8 43 -12 25 -17 27 -78 26 -36 0 -81 -7 -100 -14z"/>
<path d="M2141 2091 c-12 -12 -19 -25 -17 -30 3 -4 -6 -14 -19 -21 -14 -7 -25
-18 -25 -24 0 -6 5 -5 12 2 16 16 58 15 58 0 0 -7 11 -21 25 -30 21 -16 51
-18 117 -9 10 1 -1 30 -24 63 -10 14 -18 33 -18 42 0 9 -6 16 -14 16 -7 0 -27
3 -44 6 -23 5 -35 1 -51 -15z"/>
<path d="M2373 2045 c-8 -22 -2 -25 47 -30 l42 -5 -36 25 c-43 29 -45 30 -53
10z"/>
<path d="M2348 2024 c-15 -26 -19 -79 -12 -179 7 -104 8 -108 18 -69 14 53 35
80 48 62 10 -13 8 1 -4 42 -3 8 -3 12 -1 8 13 -22 23 -2 23 42 0 28 -5 50 -10
50 -6 0 -21 12 -34 27 -12 14 -25 22 -28 17z"/>
<path d="M1864 1595 c-12 -8 -24 -12 -27 -9 -3 3 -8 1 -11 -5 -4 -5 3 -12 14
-16 27 -9 25 -19 -7 -44 -16 -11 -22 -21 -15 -21 6 0 12 -9 12 -21 0 -34 -19
-59 -45 -59 -14 0 -25 -5 -25 -11 0 -8 -5 -7 -16 1 -13 11 -20 8 -45 -20 -38
-41 -33 -70 24 -134 30 -33 51 -48 74 -51 17 -2 41 -8 52 -15 15 -8 27 -8 41
0 12 6 35 10 53 8 24 -2 33 -8 35 -25 4 -26 6 -27 32 -13 23 12 90 131 90 159
0 13 6 21 17 21 15 0 15 1 2 13 -34 27 -59 88 -59 140 0 42 -4 55 -20 65 -12
7 -24 11 -29 8 -4 -3 -20 6 -36 20 -32 27 -80 32 -111 9z m36 -104 c0 -32 -16
-49 -31 -34 -11 11 8 63 23 63 4 0 8 -13 8 -29z m105 -31 c10 -11 15 -28 12
-39 -3 -13 5 -28 24 -45 35 -31 36 -40 7 -60 -26 -18 -138 -22 -154 -6 -6 6
-33 12 -60 14 -44 4 -49 7 -49 28 0 24 4 25 93 29 12 1 22 6 22 11 0 7 15 8
39 4 23 -3 42 -2 46 4 4 6 -8 10 -29 10 -31 0 -36 3 -36 23 0 47 52 64 85 27z"/>
<path d="M915 1580 c-7 -12 2 -12 30 0 19 8 19 9 -2 9 -12 1 -25 -3 -28 -9z"/>
<path d="M1355 1389 c-4 -6 -5 -12 -2 -15 2 -3 7 2 10 11 7 17 1 20 -8 4z"/>
<path d="M785 1380 c3 -5 8 -10 11 -10 2 0 4 5 4 10 0 6 -5 10 -11 10 -5 0 -7
-4 -4 -10z"/>
<path d="M1040 1044 c0 -8 5 -12 10 -9 6 3 10 10 10 16 0 5 -4 9 -10 9 -5 0
-10 -7 -10 -16z"/>
<path d="M1852 947 c-9 -11 -10 -17 -2 -22 15 -9 23 -1 18 21 -3 15 -4 16 -16
1z"/>
<path d="M934 942 c-24 -2 -33 -10 -44 -37 -8 -19 -16 -33 -18 -30 -8 7 -85
-96 -161 -215 -65 -101 -146 -200 -165 -200 -3 0 -27 -15 -53 -33 -45 -32
-124 -67 -222 -97 -43 -14 -44 -14 -63 13 -15 21 -25 26 -41 21 -15 -5 -19 -3
-15 8 4 8 -1 14 -11 16 -127 14 -131 15 -120 28 9 11 8 14 -5 14 -14 0 -16
-23 -16 -215 l0 -215 30 0 c32 0 29 -7 66 150 17 71 18 73 26 42 5 -17 13 -32
19 -32 10 0 5 -98 -7 -142 -5 -17 20 -18 420 -18 l426 0 -5 43 c-4 23 -8 57
-11 74 -5 34 9 73 27 73 23 0 44 -42 44 -86 0 -24 4 -44 9 -44 5 0 6 18 3 40
-3 26 -1 43 9 50 20 17 29 -32 15 -80 -6 -20 -11 -45 -11 -54 0 -23 47 -22 53
2 4 16 5 16 6 0 1 -20 36 -25 46 -8 4 6 15 8 25 5 33 -11 29 11 -6 30 -38 20
-42 30 -17 43 15 9 15 11 0 26 -17 18 -13 46 7 46 15 0 -2 128 -20 151 -6 8
-9 32 -8 54 2 22 -2 57 -7 78 -6 22 -12 64 -14 95 -2 32 -6 72 -10 90 -6 27
-5 31 9 26 11 -4 16 -1 16 10 0 9 -4 16 -10 16 -12 0 -14 37 -2 44 4 3 7 35 5
73 -4 113 -4 111 -13 83 -7 -23 -8 -23 -9 -4 -1 24 -34 49 -75 60 -17 4 -26 2
-26 -6 0 -10 -3 -10 -15 0 -8 7 -15 9 -15 4 0 -5 -4 -4 -8 1 -4 6 -21 9 -38 7z
m186 -102 c0 -5 -5 -10 -11 -10 -5 0 -7 5 -4 10 3 6 8 10 11 10 2 0 4 -4 4
-10z m-31 -145 c17 -125 21 -345 7 -345 -18 0 -85 -53 -86 -67 0 -7 -4 -13 -8
-13 -9 0 -7 75 4 170 l6 55 -58 3 c-32 2 -64 8 -71 14 -17 14 -35 0 -28 -23 5
-15 1 -19 -14 -19 -27 0 -28 32 -1 107 11 32 17 66 14 76 -13 40 6 103 43 143
38 41 40 38 18 -33 -6 -20 -4 -23 19 -23 18 0 26 -6 27 -17 1 -16 2 -17 6 -1
2 9 10 15 16 12 20 -7 77 55 78 85 2 34 15 -27 28 -124z m40 -392 c0 -5 -4
-17 -9 -28 -8 -18 -9 -17 -9 8 -1 15 4 27 9 27 6 0 10 -3 9 -7z m-240 -39 c40
-8 40 -24 -1 -24 -17 0 -47 -5 -65 -12 -37 -13 -60 -1 -50 26 7 17 58 21 116
10z"/>
<path d="M973 705 c-7 -8 -13 -18 -13 -22 0 -4 -6 -20 -14 -35 -12 -23 -12
-27 0 -32 10 -4 14 2 14 20 0 14 4 22 10 19 6 -4 10 5 10 19 0 14 5 26 10 26
6 0 10 5 10 10 0 14 -13 12 -27 -5z"/>
<path d="M990 603 c0 -10 5 -25 10 -33 7 -11 10 -7 10 18 0 17 -4 32 -10 32
-5 0 -10 -8 -10 -17z"/>
<path d="M856 545 c-3 -8 -1 -15 4 -15 6 0 10 7 10 15 0 8 -2 15 -4 15 -2 0
-6 -7 -10 -15z"/>
<path d="M805 920 c-3 -6 1 -7 9 -4 18 7 21 14 7 14 -6 0 -13 -4 -16 -10z"/>
<path d="M1860 889 c0 -5 5 -7 10 -4 6 3 10 8 10 11 0 2 -4 4 -10 4 -5 0 -10
-5 -10 -11z"/>
<path d="M1840 830 c0 -5 4 -10 9 -10 6 0 13 5 16 10 3 6 -1 10 -9 10 -9 0
-16 -4 -16 -10z"/>
<path d="M1191 714 c0 -11 3 -14 6 -6 3 7 2 16 -1 19 -3 4 -6 -2 -5 -13z"/>
<path d="M208 683 c7 -3 16 -2 19 1 4 3 -2 6 -13 5 -11 0 -14 -3 -6 -6z"/>
<path d="M2160 636 c0 -9 5 -16 10 -16 6 0 10 4 10 9 0 6 -4 13 -10 16 -5 3
-10 -1 -10 -9z"/>
<path d="M2370 640 c0 -5 5 -10 10 -10 6 0 10 5 10 10 0 6 -4 10 -10 10 -5 0
-10 -4 -10 -10z"/>
<path d="M1192 611 c0 -17 1 -31 3 -31 7 0 12 39 5 49 -4 7 -7 -1 -8 -18z"/>
<path d="M2210 590 c0 -5 5 -10 11 -10 5 0 7 5 4 10 -3 6 -8 10 -11 10 -2 0
-4 -4 -4 -10z"/>
<path d="M0 556 c0 -31 6 -34 13 -6 3 11 1 23 -4 26 -5 3 -9 -6 -9 -20z"/>
<path d="M2155 150 c3 -5 8 -10 11 -10 2 0 4 5 4 10 0 6 -5 10 -11 10 -5 0 -7
-4 -4 -10z"/>
<path d="M2210 33 c0 -4 5 -15 10 -23 8 -13 10 -13 10 2 0 9 -4 20 -10 23 -5
3 -10 3 -10 -2z"/>
<path d="M2340 15 c0 -11 11 -15 37 -15 41 0 35 13 -9 24 -21 5 -28 3 -28 -9z"/>
<path d="M2288 3 c7 -3 16 -2 19 1 4 3 -2 6 -13 5 -11 0 -14 -3 -6 -6z"/>
</g>
</svg>
